<?xml version="1.0" encoding="iso-8859-1"?>
<!-- Uploaded to: SVG Repo, www.svgrepo.com, Generator: SVG Repo Mixer Tools -->
<svg height="800px" width="800px" version="1.1" id="Layer_1" xmlns="http://www.w3.org/2000/svg" xmlns:xlink="http://www.w3.org/1999/xlink" 
	 viewBox="0 0 512.001 512.001" xml:space="preserve">
<g>
	<path style="fill:#CCCCCC;" d="M475.212,349.872c0-121.067-98.144-219.211-219.211-219.211S36.789,228.805,36.789,349.872
		c0,58.987,23.305,112.525,61.201,151.928h316.02C451.907,462.397,475.212,408.859,475.212,349.872z"/>
	<path style="fill:#CCCCCC;" d="M325.988,210.966c-2.142,0-4.317-0.425-6.41-1.323c-8.262-3.545-12.086-13.116-8.542-21.378
		l43.279-100.877c4.32-10.07,3.339-21.091-2.69-30.24c-6.03-9.148-15.771-14.394-26.728-14.394H187.104
		c-10.957,0-20.698,5.246-26.728,14.394c-6.029,9.149-7.01,20.17-2.69,30.24l43.279,100.877c3.544,8.262-0.279,17.832-8.542,21.378
		c-8.257,3.541-17.832-0.278-21.378-8.542l-43.28-100.876c-8.586-20.011-6.557-42.811,5.427-60.992
		c11.983-18.18,32.137-29.034,53.911-29.034h137.793c21.774,0,41.928,10.854,53.911,29.034
		c11.984,18.181,14.013,40.981,5.427,60.992l-43.279,100.877C338.308,207.27,332.302,210.965,325.988,210.966z"/>
</g>
<g>
	<path style="fill:#603813;" d="M372.924,152.456l20.683-48.209c9.942-23.172,7.592-49.573-6.284-70.626
		C373.447,12.568,350.111,0,324.897,0H187.104c-25.214,0-48.551,12.568-62.426,33.62c-13.876,21.053-16.226,47.455-6.284,70.626
		l20.685,48.214C69.461,193.735,26.59,268.538,26.59,349.872c0,59.587,22.746,116.054,64.049,158.999
		c1.924,1.999,4.577,3.129,7.352,3.129h316.02c2.774,0,5.428-1.13,7.352-3.129c41.303-42.946,64.049-99.413,64.049-158.999
		C485.411,268.639,442.512,193.728,372.924,152.456z M141.709,44.846c10.09-15.308,27.061-24.447,45.395-24.447h137.793
		c18.335,0,35.305,9.14,45.395,24.447c10.092,15.309,11.799,34.508,4.57,51.357l-43.279,100.876
		c-0.961,2.24-3.158,3.687-5.594,3.687c-0.818,0-1.622-0.167-2.389-0.497c-3.081-1.322-4.512-4.904-3.19-7.983L363.688,91.41
		c5.697-13.276,4.404-27.809-3.547-39.875c-7.951-12.062-20.798-18.98-35.244-18.98H187.104c-14.446,0-27.293,6.918-35.245,18.981
		c-7.95,12.065-9.244,26.597-3.546,39.873l43.278,100.876c1.322,3.081-0.109,6.662-3.188,7.984c-3.081,1.32-6.663-0.109-7.984-3.189
		L137.139,96.204C129.91,79.354,131.618,60.155,141.709,44.846z M167.058,83.367c-2.987-6.961-2.336-14.279,1.832-20.604
		c4.17-6.325,10.639-9.809,18.214-9.809h137.793c7.576,0,14.044,3.484,18.213,9.807c4.168,6.327,4.82,13.644,1.832,20.606
		l-20.39,47.527c-22.113-6.918-45.135-10.433-68.551-10.433c-23.424,0-46.441,3.511-68.553,10.43L167.058,83.367z M409.609,491.602
		H102.392c-35.762-38.719-55.404-88.877-55.404-141.729c0-73.209,38.123-140.614,100.205-178.495l14.478,33.746
		c5.755,13.414,21.352,19.649,34.773,13.894c13.415-5.756,19.649-21.355,13.892-34.772l-14.801-34.499
		c19.527-5.894,39.819-8.886,60.464-8.886c20.64,0,40.938,2.985,60.466,8.878l-14.804,34.507
		c-5.755,13.416,0.478,29.015,13.893,34.771c3.324,1.426,6.833,2.149,10.433,2.149h0.001c10.603-0.001,20.158-6.298,24.338-16.042
		l14.477-33.744c62.057,37.882,100.207,105.376,100.207,178.493C465.013,402.725,445.371,452.882,409.609,491.602z"/>
	<path style="fill:#603813;" d="M286.598,461.004H117.307c-5.632,0-10.199,4.566-10.199,10.199c0,5.633,4.567,10.199,10.199,10.199
		h169.291c5.632,0,10.199-4.566,10.199-10.199C296.797,465.57,292.23,461.004,286.598,461.004z"/>
	<path style="fill:#603813;" d="M332.495,461.004h-10.184c-5.632,0-10.199,4.566-10.199,10.199c0,5.633,4.567,10.199,10.199,10.199
		h10.184c5.632,0,10.199-4.566,10.199-10.199C342.694,465.57,338.127,461.004,332.495,461.004z"/>
</g>
</svg>